<?xml version="1.0" encoding="iso-8859-1"?>
<!-- Generator: Adobe Illustrator 16.0.0, SVG Export Plug-In . SVG Version: 6.00 Build 0)  -->
<!DOCTYPE svg PUBLIC "-//W3C//DTD SVG 1.1//EN" "http://www.w3.org/Graphics/SVG/1.1/DTD/svg11.dtd">
<svg xmlns="http://www.w3.org/2000/svg" xmlns:xlink="http://www.w3.org/1999/xlink" version="1.1" id="Capa_1" x="0px" y="0px" width="512px" height="512px" viewBox="0 0 433.886 433.887" style="enable-background:new 0 0 433.886 433.887;" xml:space="preserve">
<g>
	<g id="Layer_2_33_">
		<path d="M330.855,1.979c-39.909-8.588-80.579,11.395-107.453,48.084c15.789,18.219,27.956,41.584,34.183,68.297    c11.348,48.672,0.111,96.108-26.018,126.297c9.242,8.449,19.882,15.001,31.677,19.133l-18.712,17.792l17.062,3.672    l-44.668,146.533l-42.467-138.47l17.622-4.108l-19.014-17.469c51.811-19.15,80.376-85.054,64.448-153.38    C220.532,45.514,159.409-2.497,100.993,11.121C42.577,24.739,8.988,94.832,25.97,167.675    C41.898,236.001,96.661,282.479,151.6,276.743l-9.328,24.077l22.425-5.229l42.413,138.296h19.63l44.665-146.523l23.125,4.977    l-9.739-23.914c55.028,4.797,108.99-42.608,123.749-111.196C424.277,84.104,389.495,14.597,330.855,1.979z M62.45,191.298    C23.848,147.665,48.559,83.416,49.629,80.701l6.977,2.753l6.98,2.744c-0.228,0.58-22.36,58.47,10.099,95.16L62.45,191.298z     M383.121,148.496l-13.708-6.09c19.887-44.77-18.671-93.292-19.062-93.776l5.828-4.722l-5.822,4.729L362,39.181    C363.838,41.445,406.771,95.254,383.121,148.496z" fill="#41b990"/>
	</g>
</g>
<g>
</g>
<g>
</g>
<g>
</g>
<g>
</g>
<g>
</g>
<g>
</g>
<g>
</g>
<g>
</g>
<g>
</g>
<g>
</g>
<g>
</g>
<g>
</g>
<g>
</g>
<g>
</g>
<g>
</g>
</svg>
